<svg width="28" height="25" viewBox="0 0 28 25" fill="none" xmlns="http://www.w3.org/2000/svg">
<path d="M7.29289 24.7071C7.68342 25.0976 8.31658 25.0976 8.70711 24.7071L15.0711 18.3431C15.4616 17.9526 15.4616 17.3195 15.0711 16.9289C14.6805 16.5384 14.0474 16.5384 13.6569 16.9289L8 22.5858L2.34315 16.9289C1.95262 16.5384 1.31946 16.5384 0.928932 16.9289C0.538408 17.3195 0.538408 17.9526 0.928932 18.3431L7.29289 24.7071ZM7 0L7 24H9L9 0L7 0Z" fill="#F47F81"/>
<path d="M20.7071 0.292893C20.3166 -0.0976311 19.6834 -0.0976311 19.2929 0.292893L12.9289 6.65685C12.5384 7.04738 12.5384 7.68054 12.9289 8.07107C13.3195 8.46159 13.9526 8.46159 14.3431 8.07107L20 2.41421L25.6569 8.07107C26.0474 8.46159 26.6805 8.46159 27.0711 8.07107C27.4616 7.68054 27.4616 7.04738 27.0711 6.65685L20.7071 0.292893ZM21 25L21 1H19L19 25H21Z" fill="#F47F81"/>
</svg>
